# xmcd
#
# Track frame offsets:
#	150
#	16514
#	38809
#	60530
#	77798
#	113750
#	137335
#	155892
#	178433
#	194347
#
# Disc length: 2832 seconds
#
# Revision: 1
# Processed by: cddbd v1.5.2PL0 Copyright (c) Steve Scherf et al.
# Submitted via: audiograbber 1.83.01
#
DISCID=7e0b0e0a
DTITLE=Fabrizio Poggi - Amazing Texas Blues Voices
DYEAR=2017
DGENRE=Blues
TTITLE0=Nobody's Fault But Mine (w Carolyn Wonderland)
TTITLE1=Walk On (w Ruthie Foster)
TTITLE2=Forty Days and Forty Nights (w Mike  Zito)
TTITLE3=Rough Edges (w W.C. Clark)
TTITLE4=Mississippi, My Home (w Lavelle White)
TTITLE5=Neighbor, Neighbor (w Bobby Mack)
TTITLE6=Many In Body (w Mike Cross)
TTITLE7=Welcome Home (w Shelley King)
TTITLE8=Wishin' Well (w Mike Cross)
TTITLE9=Run On (w Guy Forsyth)
EXTD=
EXTT0=
EXTT1=
EXTT2=
EXTT3=
EXTT4=
EXTT5=
EXTT6=
EXTT7=
EXTT8=
EXTT9=
PLAYORDER=
